<?xml version="1.0" standalone="no"?>
<!DOCTYPE svg PUBLIC "-//W3C//DTD SVG 20010904//EN"
 "http://www.w3.org/TR/2001/REC-SVG-20010904/DTD/svg10.dtd">
<svg version="1.0" xmlns="http://www.w3.org/2000/svg"
 width="192.000000pt" height="192.000000pt" viewBox="0 0 192.000000 192.000000"
 preserveAspectRatio="xMidYMid meet">
<metadata>
Created by potrace 1.14, written by Peter Selinger 2001-2017
</metadata>
<g transform="translate(0.000000,192.000000) scale(0.100000,-0.100000)"
fill="#000000" stroke="none">
<path d="M815 1893 c-124 -22 -208 -49 -295 -96 -314 -168 -504 -485 -503
-837 0 -247 84 -461 251 -640 295 -318 758 -395 1140 -189 175 94 307 231 394
408 49 101 54 113 67 166 47 185 46 320 -4 530 -2 12 -20 57 -42 110 -56 132
-187 293 -307 379 -75 53 -202 118 -266 137 -25 7 -49 14 -55 16 -81 26 -278
35 -380 16z m199 -498 c44 -4 88 -9 100 -11 77 -15 134 -26 156 -30 121 -25
348 -127 369 -167 19 -36 7 -93 -25 -113 -36 -24 -67 -20 -141 19 -65 33 -195
80 -258 92 -16 3 -66 13 -110 22 -123 24 -477 23 -565 -2 -8 -2 -28 -7 -45 -9
-16 -3 -43 -10 -60 -14 -41 -12 -75 -6 -101 19 -29 27 -34 61 -17 98 20 40 53
52 223 86 14 3 61 8 105 11 44 4 81 7 83 9 5 4 208 -3 286 -10z m74 -344 c154
-32 367 -117 407 -161 22 -24 28 -71 11 -92 -30 -40 -57 -39 -156 9 -52 25
-99 46 -105 47 -5 1 -15 4 -20 8 -12 7 -154 44 -200 52 -96 16 -287 23 -360
12 -16 -2 -52 -7 -80 -11 -27 -4 -53 -9 -58 -12 -13 -8 -61 -17 -91 -16 -55 1
-84 69 -48 113 20 24 123 56 217 65 33 4 62 8 64 11 2 2 74 2 160 0 110 -2
186 -10 259 -25z m-63 -295 c123 -28 168 -43 265 -88 107 -51 135 -94 89 -137
-26 -24 -34 -22 -134 28 -163 81 -366 111 -578 86 -78 -9 -120 -16 -161 -26
-47 -13 -83 2 -92 38 -10 37 18 69 68 78 24 4 50 9 58 11 8 2 37 6 64 9 27 3
51 7 54 10 7 6 332 -2 367 -9z"/>
</g>
</svg>
